<svg xmlns="http://www.w3.org/2000/svg" width="256" height="256"><path fill="#1976D2" fill-opacity=".016" fill-rule="evenodd" d="M0 128.004v128.004l128.25-.254 128.25-.254.254-127.75L257.008 0H0v128.004m.485.496c0 70.4.119 99.053.265 63.672.146-35.38.146-92.98 0-128C.604 29.153.485 58.1.485 128.5"/><path fill="#1976D2" fill-opacity=".151" fill-rule="evenodd" d="M120.5 1c-.34.55-.254 1.014.191 1.03.445.017.022.489-.941 1.05S118 4.784 118 5.621c0 1.353-.167 1.355-1.5.022-.825-.825-1.5-2.079-1.5-2.786 0-.871-.565-.721-1.75.464-1.506 1.505-1.791 4.152-2.042 18.964-.161 9.468-.948 23.781-1.75 31.805-.802 8.025-1.458 20.033-1.458 26.685C108 92.394 107.071 98 105.144 98c-.498 0-1.207-4.837-1.576-10.75-.368-5.912-1.508-15.925-2.532-22.25-1.023-6.325-2.169-18.7-2.547-27.499-.684-15.979-1.065-17.934-4.077-20.946-1.468-1.468-1.884-1.426-5.007.503C87.532 18.216 86 18.676 86 18.082c0-2.015-1.56-1.096-3.385 1.993-1.688 2.857-1.773 5.276-1.202 34.25.337 17.146 1.043 34.325 1.568 38.175 1.643 12.058 1.312 19.925-.923 21.948-1.068.966-2.484 1.577-3.146 1.356C77.377 115.292 66.075 84.05 61 66.291 58.908 58.972 55.023 53 52.352 53c-.808 0-1.221.403-.917.895.305.493-.147 1.164-1.004 1.493-.857.329-1.304 1.009-.993 1.512.311.502-.276.694-1.304.425-5.165-1.351-2.421 16.235 8.041 51.538 2.348 7.92 5.774 23.89 8.412 39.206 4.541 26.36 7.858 39.963 11.473 47.049 3.95 7.742 9.914 40.547 9.932 54.632L86 256h65.161l-.739-13.75c-1.196-22.231-.946-34.235.808-38.824 1.473-3.855 7.375-13.783 20.051-33.729 3.077-4.842 6.365-10.917 7.306-13.5 4.538-12.449 7.876-20.27 13.159-30.822 4.491-8.972 7.236-13.029 12.504-18.485 3.713-3.844 6.75-7.339 6.75-7.766 0-.426-1.107-1.815-2.46-3.086-7.727-7.26-28.893 4.274-38.183 20.808-1.439 2.56-4.216 7.058-6.172 9.997l-3.557 5.343-1.355-4.343c-2.771-8.881-2.699-22.061.211-38.843 1.828-10.541 2.926-21.419 3.432-34 1.149-28.583-.909-44-5.873-44-2.372 0-5.008 3.572-5.145 6.973-.084 2.07-.25 1.899-.92-.948-.45-1.912-.602-3.824-.339-4.25.264-.426.014-.775-.554-.775-2.389 0-4.348 6.867-5.678 19.898-1.541 15.103-2.943 24.61-4.955 33.602-.738 3.3-1.882 10.868-2.542 16.818-1.26 11.366-3.041 15.546-5.856 13.746-1.244-.795-1.287-3.682-.307-20.744.782-13.623.846-26.386.207-40.82-.97-21.874-1.519-25.843-4.321-31.25C124.979.058 121.802-1.107 120.5 1M87.272 25c0 2.475.195 3.488.434 2.25.238-1.238.238-3.262 0-4.5-.239-1.238-.434-.225-.434 2.25"/><path fill="#1976D2" fill-opacity=".099" fill-rule="evenodd" d="M120.453 3.595c-.576.24-.871 1.951-.655 3.803.216 1.851-.1 3.67-.702 4.043-.603.372-1.096 1.55-1.096 2.618 0 1.068-.562 1.973-1.25 2.011-.687.039-.35.457.75.93 1.1.473 1.55.891 1 .93-1.396.097-1.044 12.888.456 16.57.672 1.65 1.381 3.789 1.576 4.754.195.964.632 2.202.97 2.75.339.548.231.996-.239.996s-.966 1.666-1.104 3.702c-.137 2.036-.636 4.173-1.109 4.75-2.026 2.47-3.495 20.8-1.907 23.798.612 1.154.563 1.75-.143 1.75-.732 0-.757.585-.078 1.854.545 1.019.964 3.832.929 6.25-.034 2.418.032 4.621.148 4.896.115.275.292 3.201.393 6.502.101 3.301.476 6.476.834 7.055.358.579.276 2.716-.182 4.748-.792 3.512-.707 3.695 1.716 3.695 2.407 0 2.457.103.895 1.829-.91 1.006-1.655 2.75-1.655 3.877 0 1.127-.577 2.528-1.283 3.114-.705.585-1.394 2.529-1.531 4.32-.307 4.029-1.186 5.161-1.186 1.527 0-1.467-.45-2.667-1-2.667s-1.007.563-1.015 1.25c-.026 2.123-1.909 4.352-2.735 3.237-.412-.557-2.069-1.457-3.682-2-1.612-.543-2.811-1.387-2.664-1.875.308-1.026-1.843-2.574-3.607-2.597-2.173-.027-4.243 6.208-3.896 11.735.182 2.887-.086 5.25-.594 5.25-.509 0-.679-.398-.379-.884.793-1.282-5.074-3.466-7.16-2.665-.972.373-1.958.618-2.189.544-1.137-.364-2.719 5.664-1.905 7.255.584 1.139.52 1.75-.183 1.75-1.586 0-.76 3.299 1.192 4.76.925.692 1.729 2.492 1.785 4 .199 5.374.469 7.24 1.045 7.24.322 0 .394 1.642.159 3.65-.379 3.25-.207 3.592 1.574 3.127 1.639-.429 1.902-.14 1.454 1.6-.484 1.877-.354 1.965 1.116.76.914-.75 1.435-1.732 1.157-2.181a.96.96 0 0 1 .303-1.318c1.933-1.194.95 4.027-1.059 5.625-2.013 1.601-2.033 1.703-.217 1.11 1.1-.359 2.452-1.152 3.004-1.763.552-.61 1.578-1.227 2.281-1.37 1.798-.367-1.216 5.329-3.535 6.68-.962.561-1.22 1.033-.573 1.05.648.016 2.063-1.095 3.144-2.47 2.369-3.012 3.546-3.231 2.679-.5-.349 1.1-.192 2 .349 2 .542 0 1.143-.476 1.337-1.057.194-.582 1.047-.791 1.896-.465 1.187.455 1.413 1.565.981 4.806-.449 3.359-.969 4.214-2.563 4.215-1.279.001-1.951.623-1.865 1.727.122 1.558-.071 1.582-1.973.25-2.488-1.743-3.662-1.876-3.662-.417 0 .582.465.771 1.034.42.649-.401.86.321.566 1.941-.325 1.795.081 2.874 1.335 3.545.991.531 1.99.777 2.219.547.23-.229.401.797.382 2.28-.03 2.256.403 2.705 2.647 2.748 1.475.028 2.475-.284 2.222-.694-.63-1.019 2.946-2.828 5.779-2.925 1.274-.043 1.751-.307 1.06-.585-.691-.279-1.002-.918-.691-1.421.311-.503.013-.915-.661-.915s-.936-.289-.583-.643c.354-.353 1.413-.015 2.354.75 1.507 1.227 1.633 1.184 1.056-.357-.451-1.204-.164-1.75.919-1.75.99 0 1.362.558 1 1.5-.316.825-.196 1.5.268 1.5s1.114 1.35 1.444 3c.357 1.783 1.228 3 2.148 3 1.373 0 1.363.282-.09 2.5-1.049 1.602-1.225 2.5-.488 2.5.862 0 .866.531.015 2.121-.624 1.166-.715 1.861-.201 1.544.513-.318.933.058.933.835 0 .777-.375 1.18-.834.897-1.507-.932-.868 1.329.757 2.678 1.446 1.2 1.429 1.438-.191 2.622-.98.717-1.418 1.303-.975 1.303.443 0 .084 1.102-.798 2.448-.983 1.501-1.221 2.684-.615 3.059 1.859 1.148 1.017 3.493-1.261 3.512-4.75.041-11.248 2.455-11.389 4.231-.076.963.374 1.757 1 1.765.656.009.541.394-.271.908-.776.491-1.526 1.947-1.667 3.235-.141 1.288-.331 2.342-.423 2.342-.946 0-.404 5.666.761 7.956 1.191 2.341 1.236 3.045.22 3.384-.812.27-.401.917 1.118 1.758l2.401 1.331-2.5.051c-1.972.04-2.183.251-1 .999.825.521 1.556 1.414 1.625 1.985.283 2.35.453 2.47 1.466 1.036.799-1.129 1.187-1.191 1.568-.25.384.944 5.654 1.25 21.552 1.25h21.045l-.592-3.75c-.326-2.062-.898-12.075-1.272-22.25-.945-25.693-1.465-24.163 19.303-56.794 5.837-9.171 9.373-15.995 11.4-22 1.616-4.788 6.274-15.456 10.352-23.706 6.311-12.771 8.405-16.011 14.087-21.806 6.437-6.565 6.612-6.875 4.933-8.731-2.591-2.862-7.804-3.488-12.889-1.546-11.935 4.558-21.496 13.179-28.026 25.27-1.541 2.853-4.035 6.665-5.542 8.47l-2.74 3.283-1.635-5.624c-2.615-8.995-2.138-23.847 1.431-44.539 2.907-16.857 3.048-18.916 2.722-39.777-.313-19.986-.54-22.412-2.482-26.5l-2.137-4.5-.085 3.25c-.09 3.489-2.084 4.629-2.084 1.191 0-1.132-.39-1.818-.866-1.524-.476.294-.658 1.621-.404 2.949.253 1.327-.307 3.584-1.244 5.016-.938 1.431-1.446 3.281-1.127 4.11.353.922.008 1.508-.89 1.508-1.409 0-1.694 1.695-1.681 10 .002 1.375.329 3.85.727 5.5 1.4 5.802.733 10.083-2.596 16.679-.535 1.061-.427 1.818.294 2.059.694.231.811.915.298 1.744-.877 1.42-1.058 2.56-1.979 12.518-.305 3.3-1.054 8.7-1.665 12-.611 3.3-1.253 8.25-1.427 11-.375 5.947-.805 8.198-1.747 9.14-.383.384.032 1.504.923 2.489 2.025 2.237 1.146 7.101-1.125 6.229-.893-.342-2.662.684-4.415 2.561-1.685 1.803-3.195 2.697-3.56 2.107-.349-.564-.282-1.026.147-1.026.43 0-.182-.676-1.361-1.501-3.069-2.15-4.071-7.464-1.729-9.176.995-.728 1.505-1.323 1.133-1.323-.372 0 .217-2.267 1.309-5.037 2.292-5.816 2.702-10.08.785-8.163-1.686 1.686-2.568 1.502-3.795-.791-.756-1.412-.742-6.429.048-17.25 1.331-18.244 1.331-22.269 0-48.534-.742-14.631-1.456-21.104-2.566-23.25-1.825-3.53-3.462-3.864-3.55-.725l-.064 2.25-.904-2.25c-.498-1.238-1.032-2.214-1.187-2.171-.155.043-.753.275-1.329.516M148.158 17c0 1.375.227 1.938.504 1.25.278-.687.278-1.812 0-2.5-.277-.687-.504-.125-.504 1.25m-64.503 3.368c-.414 1.577-.516 3.104-.227 3.393.805.805 1.789-2.415 1.361-4.453-.281-1.333-.579-1.054-1.134 1.06m5.484 2.882c-.099 2.888-.413 6-.7 6.916-.286.916-.004 1.985.627 2.375.839.518.798.925-.152 1.512-1.014.627-1.049 1.356-.159 3.309.829 1.819.838 2.607.036 2.874-1.415.472-1.266 7.106.17 7.584 1.959.653 4.162 6.073 3.227 7.939-.48.958-.738 3.532-.573 5.722.166 2.19-.321 5.227-1.08 6.75-1 2.003-1.057 2.773-.208 2.784.741.01.805.286.173.75-.55.404-.923 3.435-.829 6.735.233 8.134.578 9.796 2.329 11.218 1.333 1.083 1.333 1.224 0 1.266-.885.027-1.09.348-.5.781.55.404 1.075 2.31 1.166 4.235.486 10.266.908 13.993 1.584 13.996.412.002.75 1.368.75 3.035 0 1.772.623 3.271 1.5 3.607.825.317 1.5 1.203 1.5 1.969 0 1.665.511 1.725 3.066.358 1.064-.57 1.939-2.032 1.946-3.25.006-1.218.719-4.69 1.582-7.715 2.737-9.584 2.744-9.678.657-10.224-1.737-.454-1.995-1.81-2.591-13.579-.364-7.191-1.29-16.139-2.057-19.886-.768-3.746-1.694-14.236-2.059-23.311-.364-9.075-1.121-17.962-1.681-19.75-.876-2.795-1.475-3.25-4.282-3.25-3.248 0-3.265.025-3.442 5.25m3.019.75c0 1.375.227 1.938.504 1.25.278-.687.278-1.812 0-2.5-.277-.687-.504-.125-.504 1.25M51.685 55.856c-1.716.677-1.703.818.25 2.585 1.136 1.028 2.058 2.587 2.05 3.464-.011 1.153-.233 1.253-.798.363-.502-.791-1.165.196-1.846 2.75-.858 3.213-.8 3.982.298 3.982.749 0 1.361.62 1.361 1.378 0 .757.675 1.937 1.5 2.622 1.822 1.512 1.965 6.079.25 8.002-1.053 1.181-.99 1.206.402.158 1.4-1.053 1.974-.792 3.75 1.703 1.154 1.62 2.098 3.708 2.098 4.64 0 .932.63 3.113 1.401 4.846 2.321 5.222 2.681 7.896.974 7.241-.813-.312-1.221-.15-.906.36.315.51-.224 1.379-1.198 1.932-1.638.929-1.649 1.129-.139 2.657 1.255 1.272 1.81 1.364 2.404.402.5-.809.365-.998-.381-.536-1.696 1.047-1.409-.949.345-2.405 1.37-1.137 1.927-.706 1.618 1.25-.065.413.219.697.632.632 2.524-.399 3.18.425 3.08 3.868-.06 2.063-.551 4.313-1.092 5-.668.849-.604 1.25.199 1.25.649 0 .903.45.563 1-.34.55-.267 1.563.162 2.25.429.688.916 2.126 1.083 3.198.376 2.417 3.125 5.552 4.868 5.552 1.11 0 6.387-7.618 6.387-9.221 0-.3-.844-.766-1.876-1.036-1.322-.346-2.698-2.964-4.66-8.867-1.531-4.607-4.008-11.111-5.505-14.454-1.497-3.343-4.191-11.443-5.988-18-3.555-12.971-6.319-19.462-8.241-19.352-.677.039-2.047.393-3.045.786M202 98.5c-1.036 1.248-.909 1.5.755 1.5 1.1 0 2.56-.675 3.245-1.5 1.036-1.248.909-1.5-.755-1.5-1.1 0-2.56.675-3.245 1.5m-8.498.503c.6.972.268 1.17-1.281.765-1.34-.35-2.303.004-2.68.986-.323.843-.86 1.261-1.191.929-.784-.783-6.312 2.071-6.475 3.343-.389 3.03-.303 6.974.152 6.974.29 0 1.64-1.238 3-2.751s3.843-3.88 5.517-5.262c3.912-3.228 4.773-4.673 3.318-5.572-.782-.483-.901-.288-.36.588M97.015 149.75c.009.412.434 1.412.946 2.221 1.152 1.822 2.504.682 1.694-1.428-.598-1.558-2.668-2.18-2.64-.793M100.5 182c-.34.55.084 1 .941 1s1.559-.45 1.559-1-.423-1-.941-1-1.219.45-1.559 1m2.756 4.749c.416.232.502.833.191 1.336-.736 1.192.649 1.146 2.553-.085.861-.556 1.002-.976.332-.985-.643-.008-1.768-.166-2.5-.351-.733-.185-.992-.147-.576.085m11.557.934c.721.289 1.584.253 1.916-.079.332-.332-.258-.568-1.312-.525-1.165.048-1.402.285-.604.604M97.638 189.5c.317.825.753 1.5.969 1.5.216 0 .393-.675.393-1.5s-.436-1.5-.969-1.5c-.532 0-.709.675-.393 1.5m7.441 2.75c-.089 1.967 1.668 2.257 3.921.648 1.211-.865 1.076-.979-.702-.591-1.211.264-2.413-.034-2.671-.663s-.505-.357-.548.606M107 197c0 .55.477 1 1.059 1s.781-.45.441-1-.816-1-1.059-1-.441.45-.441 1m6 7c0 .55.477 1 1.059 1s.781-.45.441-1-.816-1-1.059-1-.441.45-.441 1m1.813 18.683c.721.289 1.584.253 1.916-.079.332-.332-.258-.568-1.312-.525-1.165.048-1.402.285-.604.604"/><path fill="#1976D2" fill-opacity=".234" fill-rule="evenodd" d="M124.413 6.509c.365 1.453.012 3.702-.838 5.346-.807 1.561-1.214 3.81-.903 4.997.31 1.187.032 2.8-.619 3.584-.94 1.132-.79 1.634.731 2.448 1.447.775 1.856 1.95 1.678 4.82-.129 2.088.262 4.108.869 4.49 1.283.805 1.572 29.342.434 42.806-.395 4.675-.967 13.45-1.271 19.5-.303 6.05-.701 12.013-.884 13.25-.279 1.887.13 2.25 2.529 2.25 1.808 0 2.861-.524 2.861-1.423 0-.783 1.057-2.696 2.348-4.25 1.291-1.555 2.626-3.969 2.965-5.364.548-2.25.311-2.532-2.097-2.5l-2.716.037.19-9.5c.989-49.295-.005-78.265-2.801-81.634-1.827-2.201-3.161-1.586-2.476 1.143m33.902 10.588c.741 2.832-2.283 11.903-3.967 11.903-1.542 0-1.869 2.935-.348 3.125.55.069 1.45.237 2 .375s1.28.306 1.622.375c.343.069.122.729-.491 1.467-.612.738-.854 1.602-.537 1.919.882.882 1.118 17.739.249 17.739-.419 0-.759 1.462-.754 3.25.02 7.248-.144 8.363-1.832 12.446-.966 2.339-2.432 4.437-3.257 4.662-1.046.286-.933.445.372.526 1.485.092 1.633.405.716 1.51-.893 1.076-.791 1.76.449 3 .883.883 1.221 1.606.751 1.606-.47 0-.787 1.237-.705 2.75.082 1.513-.259 3.269-.759 3.904-.5.634-1.087 2.659-1.304 4.5-.217 1.84-.595 4.246-.841 5.346-1.512 6.778-1.754 14.65-.552 17.974 1.032 2.856 1.051 3.973.088 5.32-1.9 2.657-3.339 6.382-3.945 10.206l-.554 3.5 2.642-2.424c1.453-1.334 2.684-3.584 2.736-5 .052-1.417.697.457 1.435 4.165.738 3.707 1.597 7.154 1.909 7.659.863 1.396 2.544 23.983 1.909 25.639-.306.797-.959 1.201-1.452.896-.878-.543-1.214 1.096-1.036 5.065.05 1.1-.162 1.435-.47.744-.308-.691-.993-.989-1.523-.661-.582.36-.449 1.229.335 2.198.949 1.171.965 1.403.062.86-1.721-1.034-4.061 1.414-3.48 3.639.332 1.266-.182 2.012-1.651 2.396-1.173.306-2.132 1.206-2.132 2 0 .846-.483 1.143-1.17.719-.832-.514-.93-.17-.339 1.191 1.106 2.547.676 9.405-.653 10.419-1.093.833-1.86 13.386-.91 14.9.722 1.151 1.417.97 3.845-1 1.629-1.323 3.455-3.53 4.057-4.905l1.095-2.5-.567 2.5c-.799 3.526-3.27 7.173-4.39 6.48-.52-.321-.709.033-.419.786.315.822-1.89 3.47-5.512 6.62C133.52 221.685 131.462 225 134 225c.55 0 1 1.093 1 2.429 0 1.335.626 3.054 1.391 3.819.929.929 1.091 1.926.487 3.005-.579 1.036-.502 1.861.216 2.305.799.494.751.92-.167 1.487-1.456.9-2.18 3.955-.937 3.955.447 0 .695 3.15.55 7l-.263 7h13.642l-.589-23.25c-.404-15.932-.234-24.543.541-27.358 1.102-4.007 6.918-14.072 20.452-35.392 4.063-6.4 7.696-13.623 9.305-18.5 1.452-4.4 6.02-14.931 10.152-23.401 6.505-13.336 8.297-16.138 13.366-20.898 3.22-3.023 5.854-5.879 5.854-6.348 0-1.573-3.872-.873-5.193.938-1.332 1.824-7.13 6.209-8.211 6.209-1.397 0-.335-2.07 3.654-7.119l4.25-5.381-6.848 6c-3.767 3.3-7.656 7.575-8.643 9.5-1.996 3.893-1.996 3.894-2.041 7.75-.03 2.634-.094 2.668-1.5.809-.807-1.068-1.468-1.432-1.468-.809 0 .623.461 1.417 1.024 1.765 1.265.781.599 6.059-.73 5.791-.528-.107-.964 1.018-.968 2.5-.011 3.69-8.045 19.973-10.504 21.289-1.096.587-2.292.768-2.658.402-1.689-1.691.747-19.088 4.803-34.307 1.248-4.68-.757-2.794-5.406 5.085-2.019 3.424-4.718 7.515-5.997 9.092l-2.326 2.867-1.798-5.367c-2.637-7.87-2.181-25.068 1.188-44.771 2.319-13.565 2.672-18.461 2.71-37.596.044-21.74-.959-30.5-3.493-30.5-.603 0-.836.925-.53 2.097M93.71 26.75c.391 13.689.836 18.716 1.788 20.25.513.825 1.266 3.3 1.675 5.5.409 2.2.533-3.737.276-13.194C96.966 21.598 96.607 19 94.637 19c-.786 0-1.079 2.451-.927 7.75M54.574 57.433c.242 1.338.859 3.475 1.37 4.75.791 1.973.939 2.033.993.4.034-1.054.248-1.729.473-1.5.918.932 5.588 20.112 5.092 20.914-.294.476.663 2.584 2.128 4.684 1.465 2.101 2.368 2.985 2.008 1.965-.36-1.019-2.258-7.544-4.218-14.5C58.734 61.064 56.369 55 54.952 55c-.451 0-.621 1.095-.378 2.433m43.441 3.15c.009 1.055.472 2.592 1.031 3.417.741 1.095.834.691.344-1.5-.823-3.677-1.395-4.475-1.375-1.917M121 62.059c0 .582.45.781 1 .441s1-.816 1-1.059-.45-.441-1-.441-1 .477-1 1.059M150 65c0 1.1.173 2 .383 2 .211 0 .619-.9.907-2 .287-1.1.115-2-.384-2-.498 0-.906.9-.906 2m-29.187-.317c.721.289 1.584.253 1.916-.079.332-.332-.258-.568-1.312-.525-1.165.048-1.402.285-.604.604m-.077 1.915c-.768.767.226 3.402 1.283 3.402.853 0 .737-2.578-.157-3.471-.291-.291-.798-.26-1.126.069m-21.573 1.29c-1.017.637-1.189 2.61-.717 8.225.342 4.063.518 9.862.392 12.887-.47 11.234-.144 19.094.832 20.07.674.674 1.851-.244 3.568-2.782 3.599-5.321 4.32-8.117 2.046-7.933-1.539.125-1.889-1.089-2.552-8.855-1.67-19.575-2.153-22.5-3.569-21.612M149 70c0 1.867.267 2.133 1.2 1.2.933-.933.933-1.467 0-2.4-.933-.933-1.2-.667-1.2 1.2m56.083 25.283c.23.156 1.317.943 2.417 1.75 1.85 1.357 1.897 1.336.628-.283-.755-.963-1.843-1.75-2.417-1.75-.574 0-.857.127-.628.283M71.086 101c-.031.825.381 2.175.914 3 1.181 1.828 1.181.249 0-2.5-.567-1.319-.878-1.489-.914-.5M77 117c0 .55.702 1 1.559 1s1.281-.45.941-1c-.34-.55-1.041-1-1.559-1s-.941.45-.941 1m76.543 43.931c-.317.512-.118 1.213.441 1.559.559.345 1.016-.074 1.016-.931 0-1.757-.6-2.015-1.457-.628m-8.919 15.608c-.965 2.514-.681 3.163.498 1.136.584-1.004.851-2.036.593-2.293-.257-.258-.749.263-1.091 1.157M149.5 176c-.34.55-.141 1 .441 1s1.059-.45 1.059-1-.198-1-.441-1-.719.45-1.059 1m-4.5 6c0 .55.477 1 1.059 1s.781-.45.441-1-.816-1-1.059-1-.441.45-.441 1"/></svg>